<svg width="375" height="812" viewBox="0 0 375 812" fill="none" xmlns="http://www.w3.org/2000/svg">
<g clip-path="url(#clip0_738_1104)">
<path d="M0 20C0 8.95431 8.95431 0 20 0H355C366.046 0 375 8.9543 375 20V792C375 803.046 366.046 812 355 812H20C8.95431 812 0 803.046 0 792V20Z" fill="#E4F6EB"/>
<path d="M187.21 13.6917L166.186 -33.903L148.77 -15.9673L162.418 31.434C162.418 31.434 55.2842 116.367 75.2328 180.946C85.6155 214.558 132.771 250.256 132.771 250.256L190.71 65.4765L196.487 72.8165L136.722 253.155C140.718 257.579 165.581 280.837 169.71 285.109L247.673 147.584L250.865 159.292L174.547 288.658C177.218 291.301 200.263 317.511 202.978 320.062L311.5 216.5L311.5 223.5L209.831 325.09C215.147 329.854 246.458 381.516 251.905 385.816L349.412 255.724L354.274 266.114L260.157 392.095C265.185 396.714 265.531 396.192 271.019 399.75L366.934 282.689L369.413 297.832L285.63 408.381C295.88 413.945 306.226 418.319 316.58 421.202L317.382 420.331L390.346 313.192L399.203 328.848L335.173 423.882L333.425 426.264C346.662 430.659 359.736 433.672 373 434.874L373.582 434.081L422.715 351.061L436.824 361.414L385.194 435.159L385.172 435.456C398.901 435.518 412.941 433.546 427.672 429.082C486.721 411.188 510.046 364.846 516.78 306.528L437.748 353.097L430.837 342.902L518.911 294.612C519.392 284.996 519.12 265.685 518.964 255.635L409.926 314.234L399.976 304.573L518.378 236.992C517.884 226.256 515.933 215.194 512.802 203.959L384.616 277.113L375.784 270.628L508.22 189.635C506.531 184.935 504.659 180.216 502.625 175.49L365.171 251.263L359.8 248.138L498.35 166.043C495.377 159.772 475.314 132.28 471.86 126.034L331.015 198.814L326.313 189.162C326.313 189.162 463.027 121.39 461.148 118.174C459.269 114.957 427.6 82.3953 427.6 82.3953L285.174 137.891L274.263 127.404C274.263 127.404 419.179 71.996 415.938 67.0166C412.698 62.0372 389.638 32.1106 386.22 27.2259L229.069 61.3744L221.169 51.8566L379.636 19.2944C379.636 19.2944 360.581 -17.5383 339.499 -31.4844C287.761 -65.7101 187.21 13.6917 187.21 13.6917Z" fill="#8EDAAC"/>
<path d="M337.611 1096.17L342.631 1147.96L364.797 1136.4L366.72 1087.11C366.72 1087.11 495.1 1040.1 496.432 972.522C497.126 937.351 463.56 888.654 463.56 888.654L350.544 1045.9L347.363 1037.12L460.719 884.661C458.313 879.206 442.008 849.319 439.43 843.967L322.236 950.065L322.88 937.947L435.951 839.078C434.245 835.731 420.593 803.611 418.816 800.337L283.269 864.597L285.467 857.95L413.888 793.412C410.336 787.22 396.825 728.34 393.003 722.548L259.587 815.454L258.232 804.064L387.14 713.996C383.817 708.032 383.323 708.419 379.23 703.318L251.415 784.352L253.816 769.196L368.067 690.537C360.082 682.037 351.632 674.635 342.707 668.648L341.671 669.223L238.763 748.042L235.268 730.396L325.895 660.266L328.302 658.553C317.114 650.225 305.646 643.261 293.43 637.956L292.629 638.526L219.918 701.925L209.772 687.667L281.942 633.857L282.057 633.582C269.041 629.213 255.091 626.678 239.704 626.292C178.022 624.745 141.329 661.422 116.628 714.678L206.284 695.273L209.645 707.122L110.864 725.323C107.389 734.302 101.585 752.722 98.5782 762.313L220.5 740.905L226.913 753.202L93.282 780.197C90.3813 790.546 88.7604 801.662 88.2066 813.311L232.877 784.095L239.227 793.025L88.06 828.349C88.1883 833.342 88.4841 838.41 88.9323 843.536L243.224 814.743L247.343 819.396L90.0255 853.847C90.8794 860.734 101.298 893.135 102.617 900.15L259.189 875.263L260.623 885.902C260.623 885.902 109.546 907.331 110.32 910.975C111.094 914.619 130.94 955.476 130.94 955.476L283.588 947.497L290.655 960.878C290.655 960.878 135.671 967.994 137.185 973.739C138.698 979.483 151.198 1015.14 152.91 1020.85L312.837 1037.76L317.35 1049.27L156.671 1030.44C156.671 1030.44 163.2 1071.4 178.839 1091.26C217.217 1139.99 337.611 1096.17 337.611 1096.17Z" fill="#8EDAAC"/>
<path d="M14.1344 494.053C-19.0628 475.734 5.10597 425.643 31.6344 398.553C58.1628 371.463 138.385 343.763 153.634 389.053C162.188 414.457 133.306 420.956 136.634 455.553C139.962 490.15 208.354 425.397 225.634 455.553C235.537 472.834 234.146 488.547 225.634 506.553C217.344 524.093 205.413 530.787 187.634 538.553C162.583 549.496 142.912 528.145 117.634 538.553C74.0313 556.507 108.892 659.796 63.6344 646.553C25.8842 635.507 26.1194 589.998 31.6344 551.053C36.9649 513.411 117.804 490.313 85.6344 470.053C60.7117 454.357 39.9222 508.283 14.1344 494.053Z" fill="#BBE9CD"/>
<path d="M43.0623 51.8225C41.6126 38.9145 65.9356 41.1476 65.9356 41.1476H67.3316C75.4393 41.1476 80.4563 41.8053 86.339 46.9207C92.8317 52.5667 103.306 65.5475 94.8225 67.3992C86.339 69.251 84.7725 74.2014 77.4259 76.0046C69.3757 77.9805 57.6132 79.2725 56.2171 76.0046C54.8211 72.7367 44.512 64.7305 43.0623 51.8225Z" fill="#1DB558"/>
<path d="M307.448 156.44C308.415 150.906 318.326 154.824 318.326 154.824L318.91 154.996C322.305 155.993 324.325 156.883 326.165 159.729C328.195 162.87 330.998 169.544 327.22 169.269C323.443 168.994 322.184 170.855 318.888 170.7C315.277 170.53 310.195 169.619 310.009 168.091C309.822 166.564 306.482 161.974 307.448 156.44Z" fill="#1DB558"/>
<path d="M76.2522 311.404C86.0113 319.976 66.5177 334.693 66.5177 334.693L65.4852 335.633C59.4882 341.089 55.3347 343.979 47.5409 344.154C38.9389 344.348 22.4556 341.795 27.4844 334.716C32.5131 327.637 30.3403 322.921 34.5607 316.644C39.1854 309.764 47.0162 300.893 50.248 302.371C53.4798 303.848 66.4931 302.832 76.2522 311.404Z" fill="#1DB558"/>
</g>
<defs>
<clipPath id="clip0_738_1104">
<path d="M0 20C0 8.95431 8.95431 0 20 0H355C366.046 0 375 8.9543 375 20V792C375 803.046 366.046 812 355 812H20C8.95431 812 0 803.046 0 792V20Z" fill="white"/>
</clipPath>
</defs>
</svg>